#!OML:ASF H:\Terrain\Patient Classification 1\Animal1\Tuesday\Animal1.ASF
:FULLY-SPECIFIED
:DEGREES
1081
root 4.53265 15.7535 -6.98421 -349.243 -161.462 1.14608
lowerback 5.12251 -3.15382 -1.68227
upperback -5.53692 -4.47198 1.30662
thorax -8.47125 -2.11106 2.87662
lowerneck 7.76797 2.52974 -11.9509
upperneck 17.7493 -1.00536 14.024
head 3.97311 -1.53199 6.39914
rclavicle -1.68377e-014 -3.47873e-015
rhumerus 53.1343 -36.1054 -22.4804
rradius 29.4387
rwrist -26.4907
rhand 19.3963 19.5354
rfingers 7.12502
rthumb 43.9723 -4.35777
lclavicle -1.68377e-014 -3.47873e-015
lhumerus 60.782 19.0782 29.5578
lradius 45.5691
lwrist -35.5026
lhand 23.3727 35.841
lfingers 7.12502
lthumb 47.6631 58.2095
rfemur -28.7336 -2.86419 28.9365
rtibia 48.0774
rfoot -19.1312 -26.6894
rtoes 7.20243
lfemur -43.7571 8.57161 -12.153
ltibia 40.8558
lfoot -14.2075 15.757
ltoes 8.15643
1082
root 4.46228 15.7642 -7.07391 -349.135 -162.926 1.26408
lowerback 4.94505 -3.13695 -1.91003
upperback -5.54557 -4.46827 1.37806
thorax -8.35454 -2.09865 3.06541
lowerneck 7.85823 2.69363 -12.1266
upperneck 17.6662 -0.805334 14.0223
head 3.9057 -1.45705 6.42794
rclavicle -1.31819e-014 -1.2921e-014
rhumerus 53.5995 -36.0508 -23.0187
rradius 29.2214
rwrist -25.5544
rhand 18.1402 20.4989
rfingers 7.12502
rthumb 42.7987 -3.81777
lclavicle -1.31819e-014 -1.2921e-014
lhumerus 60.2382 18.8883 29.0923
lradius 45.3845
lwrist -35.6358
lhand 23.4026 35.5314
lfingers 7.12502
lthumb 47.6907 57.8873
rfemur -28.3608 -2.74261 28.7487
rtibia 47.7658
rfoot -19.4983 -25.661
rtoes 7.87855
lfemur -43.0783 6.26146 -10.4821
ltibia 37.2406
lfoot -15.6313 16.15
ltoes 8.4025
1083
root 4.38773 15.761 -7.16314 -348.998 -164.399 1.47493
lowerback 4.72303 -3.02431 -1.9611
upperback -5.61053 -4.3302 1.37156
thorax -8.3003 -2.03423 3.05951
lowerneck 8.18689 2.82677 -12.1481
upperneck 17.5448 -0.700229 14.1002
head 3.79887 -1.43416 6.45444
rclavicle -2.90847e-014 -3.18055e-015
rhumerus 53.1589 -35.9189 -22.6664
rradius 29.2403
rwrist -25.6357
rhand 17.9849 19.63
rfingers 7.12502
rthumb 42.6535 -4.73727
lclavicle -2.90847e-014 -3.18055e-015
lhumerus 59.6178 18.5005 28.4577
lradius 45.5997
lwrist -35.5028
lhand 23.94 35.7191
lfingers 7.12502
lthumb 48.1862 57.8446
rfemur -28.1336 -2.75851 28.6839
rtibia 47.6793
rfoot -19.3497 -24.6057
rtoes 6.74346
lfemur -42.409 3.69742 -8.44813
ltibia 33.865
lfoot -16.8694 16.8365
ltoes 8.6215
1084
root 4.30636 15.7509 -7.25279 -348.96 -165.879 1.73613
lowerback 4.66243 -2.80331 -1.83465
upperback -5.5786 -4.03284 1.20845
thorax -8.26798 -1.90306 2.7793
lowerneck 8.01139 2.74526 -11.7612
upperneck 17.67 -0.851291 14.2287
head 3.88185 -1.49024 6.42986
rclavicle -4.55776e-014 7.35503e-015
rhumerus 52.1375 -36.033 -21.8521
rradius 29.2559
rwrist -26.3019
rhand 18.1175 18.8443
rfingers 7.12502
rthumb 42.7775 -5.47977
lclavicle -4.55776e-014 7.35503e-015
lhumerus 59.6231 18.1369 28.0483
lradius 45.7988
lwrist -35.298
lhand 24.5849 35.8197
lfingers 7.12502
lthumb 48.7797 57.6604
rfemur -27.9455 -2.75921 28.5753
rtibia 47.7388
rfoot -18.9083 -23.6744
rtoes 4.82008
lfemur -41.6533 1.05621 -6.28227
ltibia 30.9058
lfoot -17.173 18.2788
ltoes 5.42613
1085
root 4.22342 15.7408 -7.34788 -349.093 -167.537 1.99207
lowerback 4.70659 -2.58442 -1.79089
upperback -5.35828 -3.73324 0.976386
thorax -8.08938 -1.76512 2.46996
lowerneck 7.27788 2.51474 -10.9864
upperneck 17.9626 -1.12275 14.2202
head 4.12571 -1.55569 6.2926
rclavicle -6.61083e-014 -7.55382e-015
rhumerus 51.7946 -36.6424 -22.0786
rradius 29.1868
rwrist -26.4585
rhand 18.4062 18.8403
rfingers 7.12502
rthumb 43.0476 -5.38883
lclavicle -6.61083e-014 -7.55382e-015
lhumerus 60.1013 18.0184 27.9061
lradius 45.7417
lwrist -35.1897
lhand 24.2201 35.0189
lfingers 7.12502
lthumb 48.4442 57.0218
rfemur -27.6391 -2.65467 28.4427
rtibia 47.8792
rfoot -18.977 -22.7869
rtoes 4.89543
lfemur -40.7206 -1.59947 -4.06998
ltibia 28.5013
lfoot -17.8376 20.1803
ltoes 4.02103
1086
root 4.13836 15.7372 -7.44424 -349.201 -169.214 2.26431
lowerback 4.59323 -2.36189 -1.65765
upperback -5.40143 -3.44078 0.817033
thorax -8.10161 -1.63793 2.19182
lowerneck 7.98858 2.51645 -10.5731
upperneck 17.7684 -1.25891 14.2877
head 3.96613 -1.65929 6.23665
rclavicle 5.684e-014 8.34896e-015
rhumerus 50.9178 -36.5846 -21.6353
rradius 29.3759
rwrist -27.136
rhand 19.4306 17.9612
rfingers 7.12502
rthumb 44.0043 -5.92004
lclavicle 5.684e-014 8.34896e-015
lhumerus 60.3564 17.4832 27.9996
lradius 45.5694
lwrist -35.1247
lhand 24.0677 34.0435
lfingers 7.12502
lthumb 48.3038 56.1133
rfemur -27.3614 -2.64257 28.3332
rtibia 48.0733
rfoot -19.3511 -21.6459
rtoes 5.84504
lfemur -39.9175 -4.3254 -1.82507
ltibia 26.6535
lfoot -19.3901 22.2739
ltoes 5.05961
1087
root 4.04777 15.7348 -7.53908 -349.205 -170.804 2.49641
lowerback 4.43548 -2.32868 -1.56286
upperback -5.38186 -3.39264 0.77657
thorax -7.99779 -1.62543 2.08201
lowerneck 8.06143 2.6005 -10.4219
upperneck 17.8728 -1.22745 14.2925
head 3.98018 -1.66556 6.21206
rclavicle 5.96354e-015 1.98785e-014
rhumerus 51.3511 -36.737 -22.5129
rradius 29.0399
rwrist -26.6755
rhand 19.5996 18.0453
rfingers 7.12502
rthumb 44.1619 -5.77692
lclavicle 5.96354e-015 1.98785e-014
lhumerus 60.1722 17.4521 27.9811
lradius 45.5913
lwrist -35.1659
lhand 24.8287 33.4413
lfingers 7.12502
lthumb 49.0038 55.1718
rfemur -27.2322 -2.87351 28.1869
rtibia 48.4346
rfoot -19.3815 -20.5944
rtoes 4.3163
lfemur -39.3285 -6.70441 0.0438717
ltibia 25.3581
lfoot -20.9648 24.2611
ltoes 6.29758
1088
root 3.95389 15.7239 -7.63556 -349.201 -172.533 2.81182
lowerback 4.29553 -2.25975 -1.39843
upperback -5.3492 -3.28564 0.801535
thorax -7.89231 -1.58539 1.99649
lowerneck 7.92643 2.67313 -10.5567
upperneck 17.9885 -1.21652 14.4965
head 4.03073 -1.67799 6.30407
rclavicle 2.47114e-014 1.19271e-014
rhumerus 52.6163 -37.2934 -24.2475
rradius 28.3791
rwrist -24.9227
rhand 19.4458 18.897
rfingers 7.12502
rthumb 44.0185 -4.97895
lclavicle 2.47114e-014 1.19271e-014
lhumerus 59.8523 17.5374 28.0172
lradius 45.7088
lwrist -35.2708
lhand 25.2601 33.1888
lfingers 7.12502
lthumb 49.3998 54.721
rfemur -27.2627 -2.98492 28.1235
rtibia 49.0492
rfoot -19.0099 -19.91
rtoes 1.61958
lfemur -38.7634 -8.39177 1.52312
ltibia 24.5478
lfoot -22.6835 25.4332
ltoes 10.2635
1089
root 3.85783 15.7008 -7.73194 -349.204 -174.334 3.13271
lowerback 4.23109 -2.19793 -1.2283
upperback -5.34348 -3.18875 0.85958
thorax -7.85777 -1.54852 1.94895
lowerneck 7.84578 -0.336053 -11.4514
upperneck 18.8582 -0.407378 14.1983
head 4.32075 0.644158 6.53812
rclavicle 1.6524e-015 6.36111e-015
rhumerus 53.0403 -37.4555 -24.6881
rradius 28.2402
rwrist -24.6073
rhand 21.0668 18.8027
rfingers 7.12502
rthumb 45.5275 -4.48604
lclavicle 1.6524e-015 6.36111e-015
lhumerus 59.4947 17.6568 27.9275
lradius 45.674
lwrist -35.3668
lhand 25.2038 33.3397
lfingers 7.12502
lthumb 49.3482 54.8981
rfemur -27.4702 -3.09118 28.0268
rtibia 49.9433
rfoot -18.6025 -19.0034
rtoes 1.13815
lfemur -38.1811 -9.40767 2.52852
ltibia 24.0297
lfoot -23.4471 25.9376
ltoes 12.7988
1090
root 3.7601 15.6697 -7.82832 -349.199 -176.086 3.29312
lowerback 4.2103 -2.1451 -1.23896
upperback -5.35597 -3.12558 0.832159
thorax -7.86255 -1.51981 1.91916
lowerneck 7.54666 -0.347297 -11.6504
upperneck 19.3315 -0.464306 14.5443
head 4.51579 0.640938 6.70954
rclavicle 1.83255e-014 -1.98785e-015
rhumerus 52.8871 -37.4208 -24.5585
rradius 28.2663
rwrist -24.7904
rhand 23.2038 18.9721
rfingers 7.12502
rthumb 47.5071 -3.46743
lclavicle 1.83255e-014 -1.98785e-015
lhumerus 59.3944 17.7499 27.926
lradius 45.5244
lwrist -35.5542
lhand 25.5922 33.1327
lfingers 7.12502
lthumb 49.7043 54.5093
rfemur -27.859 -3.37021 27.7157
rtibia 51.1107
rfoot -18.6634 -17.6826
rtoes 3.48785
lfemur -37.5799 -9.79473 2.85233
ltibia 23.7614
lfoot -21.4311 26.3994
ltoes 6.69524
1091
root 3.66099 15.6528 -7.92597 -349.236 -177.851 3.52672
lowerback 4.21469 -2.0558 -1.14234
upperback -5.37583 -3.00793 0.769373
thorax -7.89909 -1.47136 1.78822
lowerneck 7.26582 -0.459931 -11.4508
upperneck 19.8288 -0.611023 14.6456
head 4.73195 0.613501 6.72951
rclavicle 1.16662e-014 9.14409e-015
rhumerus 52.7673 -37.4724 -24.6052
rradius 28.1511
rwrist -24.5968
rhand 23.1666 20.1021
rfingers 7.12502
rthumb 47.4728 -2.35295
lclavicle 1.16662e-014 9.14409e-015
lhumerus 59.4394 17.7674 27.9831
lradius 45.3966
lwrist -35.7349
lhand 26.9442 32.7801
lfingers 7.12502
lthumb 50.9399 53.495
rfemur -28.3977 -3.57031 27.4458
rtibia 52.4483
rfoot -18.9828 -16.2283
rtoes 5.79091
lfemur -36.8305 -9.90332 3.03739
ltibia 23.8403
lfoot -17.9401 25.5139
ltoes -2.0866
